<svg width="512" height="512" viewBox="0 0 512 512" fill="none" xmlns="http://www.w3.org/2000/svg">
<g clip-path="url(#clip0_119_3985)">
<path d="M102.404 30.513C95.726 32.183 91.04 38.172 91.04 45.055C91.04 51.938 95.727 57.928 102.404 59.597L226.004 90.043V0.0670166L102.404 30.513Z" fill="#FF0059"/>
<path d="M213.292 97.086L63.3319 338.021C60.4329 342.649 60.2859 348.477 62.9209 353.237C65.5719 358.011 70.5949 360.969 76.0429 360.969H226.003L233.955 92.326C226.912 87.918 217.671 90.057 213.292 97.086Z" fill="#FCBF29"/>
<path d="M435.947 360.969H226.003C219.545 360.969 213.818 356.839 211.783 350.718C209.733 344.597 211.842 337.86 216.997 333.979C248.819 310.079 270.992 241.085 270.992 195.013C270.992 155.59 250.68 115.991 216.676 89.074C211.36 84.871 209.53 77.651 212.18 71.428C214.845 65.19 221.333 61.485 228.04 62.465C346.03 78.882 433.503 205.502 446.873 312.495L450.827 344.113C451.369 348.375 450.036 352.666 447.195 355.902C444.338 359.125 440.253 360.969 435.947 360.969Z" fill="#D9D9D9"/>
<path d="M240.999 15.062V405.957C240.999 414.354 234.402 420.953 226.003 420.953C217.604 420.953 211.007 414.354 211.007 405.957V15.062C211.007 6.66304 217.604 0.06604 226.003 0.06604C234.402 0.06604 240.999 6.66404 240.999 15.062Z" fill="#883F2E"/>
<path d="M226.003 420.953V0.06604C234.402 0.06604 240.999 6.66304 240.999 15.062V405.957C240.999 414.354 234.402 420.953 226.003 420.953Z" fill="#6D3326"/>
<path d="M479.436 412.254L445.845 483.736C445.845 484.036 445.845 484.036 445.545 484.335C435.948 472.639 421.551 466.941 405.956 466.941C388.861 466.941 372.966 473.238 363.368 487.635C362.167 489.434 360.368 490.333 358.868 491.534L333.376 491.832C331.576 490.633 329.777 489.434 328.576 487.634C318.979 473.237 303.084 466.94 285.988 466.94C274.891 466.94 264.693 469.638 255.996 475.037C251.198 478.337 246.998 482.535 243.4 487.635C241.9 489.734 239.801 491.234 237.702 492.733H214.607C212.508 491.534 210.107 490.033 208.609 487.635C199.012 473.238 183.117 466.941 166.021 466.941C148.925 466.941 133.031 473.238 123.433 487.635C121.633 490.333 119.234 492.433 116.235 493.633L95.8379 493.931C93.1399 492.431 90.4389 490.332 88.6399 487.634C81.4419 476.836 69.3449 470.539 57.0489 468.138L31.5549 412.252C29.1549 407.754 29.7549 402.356 32.4559 397.857C35.1539 393.658 39.9539 390.96 45.0519 390.96H465.939C471.037 390.96 475.837 393.658 478.535 397.857C481.236 402.359 481.835 407.757 479.436 412.254Z" fill="#FF0059"/>
<path d="M479.436 412.254L445.845 483.736C445.845 484.036 445.845 484.036 445.545 484.335C435.948 472.639 421.551 466.941 405.956 466.941C388.861 466.941 372.966 473.238 363.368 487.635C362.167 489.434 360.368 490.333 358.868 491.534L333.376 491.832C331.576 490.633 329.777 489.434 328.576 487.634C318.979 473.237 303.084 466.94 285.988 466.94C274.891 466.94 264.693 469.638 255.996 475.037C251.198 478.337 246.998 482.535 243.4 487.635C241.9 489.734 239.801 491.234 237.702 492.733H226.005V390.959H465.941C471.039 390.959 475.839 393.657 478.537 397.856C481.236 402.359 481.835 407.757 479.436 412.254Z" fill="#E50048"/>
<path d="M509.527 489.135C499.93 503.53 484.035 511.929 466.939 511.929C449.843 511.929 432.949 503.53 423.352 489.135C415.554 477.137 396.358 477.137 388.56 489.135C378.963 503.53 363.068 511.929 345.972 511.929C328.876 511.929 312.982 503.53 303.384 489.135C295.586 477.137 276.39 477.137 268.592 489.135C264.993 494.233 260.794 498.732 255.996 502.032C247.299 508.631 237.101 511.93 226.004 511.93C208.909 511.93 193.014 503.531 183.416 489.136C175.618 477.138 156.422 477.138 148.624 489.136C139.027 503.531 123.132 511.93 106.036 511.93C88.9401 511.93 72.0461 503.531 62.4491 489.136C54.6511 477.138 35.4551 477.138 27.6571 489.136C22.8591 496.033 13.5621 497.833 6.66309 493.335C-0.233909 488.835 -2.03391 479.538 2.46509 472.641C12.0621 458.244 27.9571 451.947 45.0531 451.947C62.1491 451.947 79.0431 458.244 88.6401 472.641C96.4381 484.337 115.634 484.337 123.432 472.641C133.029 458.244 148.924 451.947 166.02 451.947C183.116 451.947 199.01 458.244 208.608 472.641C212.507 478.339 219.406 481.338 226.004 481.338C232.602 481.338 239.5 478.34 243.4 472.641C246.999 467.541 251.198 463.344 255.996 460.043C264.693 454.644 274.891 451.946 285.988 451.946C303.083 451.946 318.978 458.243 328.576 472.64C336.374 484.336 355.57 484.336 363.368 472.64C372.965 458.243 388.86 451.946 405.956 451.946C423.052 451.946 438.946 458.243 448.544 472.64C456.342 484.336 476.537 484.336 484.335 472.64C489.133 465.741 498.43 463.941 505.329 468.441C512.227 472.94 514.027 482.238 509.527 489.135Z" fill="#1DE8F1"/>
<path d="M509.527 489.135C499.93 503.53 484.035 511.929 466.939 511.929C449.843 511.929 432.949 503.53 423.352 489.135C415.554 477.137 396.358 477.137 388.56 489.135C378.963 503.53 363.068 511.929 345.972 511.929C328.876 511.929 312.982 503.53 303.384 489.135C295.586 477.137 276.39 477.137 268.592 489.135C264.993 494.233 260.794 498.732 255.996 502.032C247.299 508.631 237.101 511.93 226.004 511.93V481.337C232.601 481.337 239.5 478.339 243.4 472.64C246.999 467.54 251.198 463.343 255.996 460.042C264.693 454.643 274.891 451.945 285.988 451.945C303.083 451.945 318.978 458.242 328.576 472.639C336.374 484.335 355.57 484.335 363.368 472.639C372.965 458.242 388.86 451.945 405.956 451.945C423.052 451.945 438.946 458.242 448.544 472.639C456.342 484.335 476.537 484.335 484.335 472.639C489.133 465.74 498.43 463.94 505.329 468.44C512.227 472.94 514.027 482.238 509.527 489.135Z" fill="#15B7BE"/>
</g>
<defs>
<clipPath id="clip0_119_3985">
<rect width="511.996" height="511.996" fill="white"/>
</clipPath>
</defs>
</svg>
